<svg width="24" height="24" viewBox="0 0 24 24" fill="none" xmlns="http://www.w3.org/2000/svg">
    <path d="M4 3H5C6.054 3 6.918 3.816 6.995 4.85L7 5V19C6.99967 19.5043 6.80892 19.9899 6.4659 20.3597C6.12288 20.7294 5.6529 20.9559 5.15 20.994L5 21H4C3.49549 20.9999 3.00963 20.8093 2.6397 20.4662C2.26977 20.1232 2.04307 19.6531 2.005 19.15L2 19V5C2 3.946 2.816 3.082 3.85 3.005L4 3H5H4ZM10 3H11C12.054 3 12.918 3.816 12.995 4.85L13 5V19C12.9997 19.5043 12.8089 19.9899 12.4659 20.3597C12.1229 20.7294 11.6529 20.9559 11.15 20.994L11 21H10C9.49549 20.9999 9.00963 20.8093 8.6397 20.4662C8.26977 20.1232 8.04307 19.6531 8.005 19.15L8 19V5C8 3.946 8.816 3.082 9.85 3.005L10 3H11H10ZM16.974 5C17.814 5 18.582 5.531 18.864 6.346L18.911 6.503L21.926 18.248C22.0515 18.7367 21.9877 19.2547 21.7474 19.6983C21.507 20.1419 21.1079 20.4783 20.63 20.64L20.486 20.683L19.517 20.931C19.0306 21.0552 18.5153 20.9922 18.0732 20.7544C17.6311 20.5166 17.2944 20.1213 17.13 19.647L17.083 19.492L14.067 7.747C13.9416 7.25808 14.0057 6.73982 14.2464 6.29619C14.4872 5.85255 14.8867 5.51634 15.365 5.355L15.508 5.312L16.476 5.064C16.6386 5.02173 16.806 5.00022 16.974 5ZM5 4.5H4C3.88303 4.50016 3.7698 4.54124 3.67993 4.61612C3.59007 4.69101 3.52925 4.79497 3.508 4.91L3.5 5V19C3.5 19.244 3.677 19.45 3.91 19.492L4 19.5H5C5.245 19.5 5.45 19.322 5.492 19.09L5.5 19V5C5.49984 4.88303 5.45876 4.7698 5.38388 4.67993C5.309 4.59007 5.20503 4.52925 5.09 4.508L5 4.5ZM11 4.5H10C9.88303 4.50016 9.7698 4.54124 9.67993 4.61612C9.59007 4.69101 9.52925 4.79497 9.508 4.91L9.5 5V19C9.5 19.244 9.677 19.45 9.91 19.492L10 19.5H11C11.245 19.5 11.45 19.322 11.492 19.09L11.5 19V5C11.4998 4.88303 11.4588 4.7698 11.3839 4.67993C11.309 4.59007 11.205 4.52925 11.09 4.508L11 4.5ZM16.975 6.5L16.912 6.504L16.849 6.517L15.881 6.764C15.7689 6.79215 15.67 6.85844 15.6014 6.95149C15.5328 7.04454 15.4987 7.15856 15.505 7.274L15.52 7.374L18.536 19.119C18.5637 19.2261 18.6261 19.3211 18.7135 19.3889C18.8009 19.4568 18.9083 19.4938 19.019 19.494L19.082 19.491L19.144 19.479L20.114 19.229C20.2272 19.1998 20.3265 19.1319 20.3949 19.0371C20.4632 18.9423 20.4961 18.8266 20.488 18.71L20.473 18.622L17.458 6.875C17.4302 6.76794 17.3677 6.6731 17.2803 6.60527C17.193 6.53743 17.0856 6.50042 16.975 6.5Z" fill="black" />
</svg>