<svg width="8" height="15" viewBox="0 0 8 15" fill="none" xmlns="http://www.w3.org/2000/svg">
    <path d="M1.16984 -3.38889e-05C1.31923 -0.000541231 1.46684 0.0324302 1.60182 0.0964589C1.7368 0.160488 1.85572 0.253947 1.94984 0.369967L6.77984 6.36997C6.92692 6.5489 7.00732 6.77334 7.00732 7.00497C7.00732 7.23659 6.92692 7.46104 6.77984 7.63997L1.77984 13.64C1.6101 13.8442 1.36619 13.9726 1.10176 13.997C0.837334 14.0214 0.574053 13.9397 0.369836 13.77C0.16562 13.6002 0.0371957 13.3563 0.012816 13.0919C-0.0115637 12.8275 0.0700976 12.5642 0.239836 12.36L4.70984 6.99997L0.389838 1.63997C0.267555 1.49318 0.189878 1.31444 0.165998 1.12489C0.142119 0.935343 0.173035 0.742919 0.255091 0.570391C0.337147 0.397864 0.466907 0.252452 0.629018 0.151362C0.791128 0.0502714 0.978804 -0.0022655 1.16984 -3.38889e-05Z" fill="white" />
</svg>
    