<svg width="127" height="34" viewBox="0 0 127 34" fill="none" xmlns="http://www.w3.org/2000/svg">
    <path d="M0 17C0 7.61116 7.61116 0 17 0H110C119.389 0 127 7.61116 127 17C127 26.3888 119.389 34 110 34H17C7.61116 34 0 26.3888 0 17Z" fill="#726F9F" />
    <path d="M17.7686 12.088C19.0753 12.088 20.1066 12.4707 20.8626 13.236C21.6186 13.992 21.9966 15.0793 21.9966 16.498V22H20.5966V19.298H14.9406V22H13.5686V16.498C13.5686 15.0793 13.9466 13.992 14.7026 13.236C15.4586 12.4707 16.4806 12.088 17.7686 12.088ZM20.5966 18.08V16.372C20.5966 15.3733 20.3446 14.6173 19.8406 14.104C19.346 13.5907 18.6553 13.334 17.7686 13.334C16.882 13.334 16.1866 13.5907 15.6826 14.104C15.188 14.6173 14.9406 15.3733 14.9406 16.372V18.08H20.5966ZM27.8879 22.084C27.1319 22.084 26.4552 21.9207 25.8579 21.594C25.2699 21.2673 24.8079 20.8193 24.4719 20.25C24.1359 19.6713 23.9679 19.018 23.9679 18.29C23.9679 17.562 24.1359 16.9133 24.4719 16.344C24.8079 15.7653 25.2699 15.3173 25.8579 15C26.4552 14.6733 27.1319 14.51 27.8879 14.51C28.5599 14.51 29.1572 14.6453 29.6799 14.916C30.2119 15.1867 30.6225 15.5787 30.9119 16.092L29.8899 16.75C29.6565 16.3953 29.3672 16.1293 29.0219 15.952C28.6765 15.7747 28.2939 15.686 27.8739 15.686C27.3885 15.686 26.9499 15.7933 26.5579 16.008C26.1752 16.2227 25.8719 16.5307 25.6479 16.932C25.4332 17.324 25.3259 17.7767 25.3259 18.29C25.3259 18.8127 25.4332 19.2747 25.6479 19.676C25.8719 20.068 26.1752 20.3713 26.5579 20.586C26.9499 20.8007 27.3885 20.908 27.8739 20.908C28.2939 20.908 28.6765 20.8193 29.0219 20.642C29.3672 20.4647 29.6565 20.1987 29.8899 19.844L30.9119 20.488C30.6225 21.0013 30.2119 21.398 29.6799 21.678C29.1572 21.9487 28.5599 22.084 27.8879 22.084ZM36.5182 14.51C37.4609 14.51 38.2076 14.7853 38.7582 15.336C39.3182 15.8773 39.5982 16.6753 39.5982 17.73V22H38.2542V17.884C38.2542 17.1653 38.0816 16.624 37.7362 16.26C37.3909 15.896 36.8962 15.714 36.2522 15.714C35.5242 15.714 34.9502 15.9287 34.5302 16.358C34.1102 16.778 33.9002 17.3847 33.9002 18.178V22H32.5562V11.612H33.9002V15.63C34.1802 15.2753 34.5442 15 34.9922 14.804C35.4496 14.608 35.9582 14.51 36.5182 14.51ZM42.0855 14.58H43.4295V22H42.0855V14.58ZM42.7575 13.152C42.4962 13.152 42.2769 13.068 42.0995 12.9C41.9315 12.732 41.8475 12.5267 41.8475 12.284C41.8475 12.0413 41.9315 11.836 42.0995 11.668C42.2769 11.4907 42.4962 11.402 42.7575 11.402C43.0189 11.402 43.2335 11.486 43.4015 11.654C43.5789 11.8127 43.6675 12.0133 43.6675 12.256C43.6675 12.508 43.5789 12.7227 43.4015 12.9C43.2335 13.068 43.0189 13.152 42.7575 13.152ZM49.3417 20.908C50.2283 20.908 50.9423 20.6093 51.4837 20.012L52.2117 20.88C51.885 21.272 51.4697 21.5707 50.9657 21.776C50.471 21.9813 49.9157 22.084 49.2997 22.084C48.5157 22.084 47.8203 21.9253 47.2137 21.608C46.607 21.2813 46.1357 20.8287 45.7997 20.25C45.473 19.6713 45.3097 19.018 45.3097 18.29C45.3097 17.5713 45.4683 16.9227 45.7857 16.344C46.1123 15.7653 46.5557 15.3173 47.1157 15C47.685 14.6733 48.3243 14.51 49.0337 14.51C49.7057 14.51 50.317 14.664 50.8677 14.972C51.4183 15.2707 51.857 15.6953 52.1837 16.246C52.5103 16.7967 52.6783 17.4313 52.6877 18.15L46.7937 19.298C46.9803 19.8113 47.293 20.208 47.7317 20.488C48.1797 20.768 48.7163 20.908 49.3417 20.908ZM49.0337 15.644C48.567 15.644 48.147 15.7513 47.7737 15.966C47.4097 16.1807 47.125 16.484 46.9197 16.876C46.7143 17.2587 46.6117 17.7067 46.6117 18.22V18.36L51.3577 17.464C51.2363 16.9227 50.9657 16.484 50.5457 16.148C50.1257 15.812 49.6217 15.644 49.0337 15.644ZM60.9972 14.58L57.7492 22H56.3772L53.1292 14.58H54.5292L57.0772 20.53L59.6812 14.58H60.9972ZM65.3925 20.908C66.2791 20.908 66.9931 20.6093 67.5345 20.012L68.2625 20.88C67.9358 21.272 67.5205 21.5707 67.0165 21.776C66.5218 21.9813 65.9665 22.084 65.3505 22.084C64.5665 22.084 63.8711 21.9253 63.2645 21.608C62.6578 21.2813 62.1865 20.8287 61.8505 20.25C61.5238 19.6713 61.3605 19.018 61.3605 18.29C61.3605 17.5713 61.5191 16.9227 61.8365 16.344C62.1631 15.7653 62.6065 15.3173 63.1665 15C63.7358 14.6733 64.3751 14.51 65.0845 14.51C65.7565 14.51 66.3678 14.664 66.9185 14.972C67.4691 15.2707 67.9078 15.6953 68.2345 16.246C68.5611 16.7967 68.7291 17.4313 68.7385 18.15L62.8445 19.298C63.0311 19.8113 63.3438 20.208 63.7825 20.488C64.2305 20.768 64.7671 20.908 65.3925 20.908ZM65.0845 15.644C64.6178 15.644 64.1978 15.7513 63.8245 15.966C63.4605 16.1807 63.1758 16.484 62.9705 16.876C62.7651 17.2587 62.6625 17.7067 62.6625 18.22V18.36L67.4085 17.464C67.2871 16.9227 67.0165 16.484 66.5965 16.148C66.1765 15.812 65.6725 15.644 65.0845 15.644ZM79.9007 14.51C80.8341 14.51 81.5714 14.7807 82.1127 15.322C82.6634 15.8633 82.9387 16.666 82.9387 17.73V22H81.5947V17.884C81.5947 17.1653 81.4267 16.624 81.0907 16.26C80.7641 15.896 80.2927 15.714 79.6767 15.714C78.9954 15.714 78.4541 15.9287 78.0527 16.358C77.6514 16.778 77.4507 17.3847 77.4507 18.178V22H76.1067V17.884C76.1067 17.1653 75.9387 16.624 75.6027 16.26C75.2761 15.896 74.8047 15.714 74.1887 15.714C73.5074 15.714 72.9661 15.9287 72.5647 16.358C72.1634 16.778 71.9627 17.3847 71.9627 18.178V22H70.6187V14.58H71.9067V15.686C72.1774 15.3033 72.5321 15.014 72.9707 14.818C73.4094 14.6127 73.9087 14.51 74.4687 14.51C75.0474 14.51 75.5607 14.6267 76.0087 14.86C76.4567 15.0933 76.8021 15.434 77.0447 15.882C77.3247 15.4527 77.7121 15.1167 78.2067 14.874C78.7107 14.6313 79.2754 14.51 79.9007 14.51ZM88.7987 20.908C89.6854 20.908 90.3994 20.6093 90.9407 20.012L91.6687 20.88C91.342 21.272 90.9267 21.5707 90.4227 21.776C89.928 21.9813 89.3727 22.084 88.7567 22.084C87.9727 22.084 87.2774 21.9253 86.6707 21.608C86.064 21.2813 85.5927 20.8287 85.2567 20.25C84.93 19.6713 84.7667 19.018 84.7667 18.29C84.7667 17.5713 84.9254 16.9227 85.2427 16.344C85.5694 15.7653 86.0127 15.3173 86.5727 15C87.142 14.6733 87.7814 14.51 88.4907 14.51C89.1627 14.51 89.774 14.664 90.3247 14.972C90.8754 15.2707 91.314 15.6953 91.6407 16.246C91.9674 16.7967 92.1354 17.4313 92.1447 18.15L86.2507 19.298C86.4374 19.8113 86.75 20.208 87.1887 20.488C87.6367 20.768 88.1734 20.908 88.7987 20.908ZM88.4907 15.644C88.024 15.644 87.604 15.7513 87.2307 15.966C86.8667 16.1807 86.582 16.484 86.3767 16.876C86.1714 17.2587 86.0687 17.7067 86.0687 18.22V18.36L90.8147 17.464C90.6934 16.9227 90.4227 16.484 90.0027 16.148C89.5827 15.812 89.0787 15.644 88.4907 15.644ZM97.987 14.51C98.9296 14.51 99.6763 14.7853 100.227 15.336C100.787 15.8773 101.067 16.6753 101.067 17.73V22H99.723V17.884C99.723 17.1653 99.5503 16.624 99.205 16.26C98.8596 15.896 98.365 15.714 97.721 15.714C96.993 15.714 96.419 15.9287 95.999 16.358C95.579 16.778 95.369 17.3847 95.369 18.178V22H94.025V14.58H95.313V15.7C95.5836 15.3173 95.9476 15.0233 96.405 14.818C96.8716 14.6127 97.399 14.51 97.987 14.51ZM107.46 21.566C107.264 21.734 107.022 21.8647 106.732 21.958C106.443 22.042 106.144 22.084 105.836 22.084C105.09 22.084 104.511 21.8833 104.1 21.482C103.69 21.0807 103.484 20.5067 103.484 19.76V12.956H104.828V14.58H106.956V15.686H104.828V19.704C104.828 20.1053 104.926 20.4133 105.122 20.628C105.328 20.8427 105.617 20.95 105.99 20.95C106.401 20.95 106.751 20.8333 107.04 20.6L107.46 21.566ZM111.206 22.084C110.599 22.084 110.016 22.0047 109.456 21.846C108.896 21.678 108.457 21.468 108.14 21.216L108.7 20.152C109.026 20.3853 109.423 20.572 109.89 20.712C110.356 20.852 110.828 20.922 111.304 20.922C112.48 20.922 113.068 20.586 113.068 19.914C113.068 19.69 112.988 19.5127 112.83 19.382C112.671 19.2513 112.47 19.158 112.228 19.102C111.994 19.0367 111.658 18.9667 111.22 18.892C110.622 18.7987 110.132 18.6913 109.75 18.57C109.376 18.4487 109.054 18.2433 108.784 17.954C108.513 17.6647 108.378 17.2587 108.378 16.736C108.378 16.064 108.658 15.5273 109.218 15.126C109.778 14.7153 110.529 14.51 111.472 14.51C111.966 14.51 112.461 14.5707 112.956 14.692C113.45 14.8133 113.856 14.9767 114.174 15.182L113.6 16.246C112.993 15.854 112.279 15.658 111.458 15.658C110.888 15.658 110.454 15.7513 110.156 15.938C109.857 16.1247 109.708 16.372 109.708 16.68C109.708 16.9227 109.792 17.114 109.96 17.254C110.128 17.394 110.333 17.4967 110.576 17.562C110.828 17.6273 111.178 17.702 111.626 17.786C112.223 17.8887 112.704 18.0007 113.068 18.122C113.441 18.234 113.758 18.43 114.02 18.71C114.281 18.99 114.412 19.382 114.412 19.886C114.412 20.558 114.122 21.0947 113.544 21.496C112.974 21.888 112.195 22.084 111.206 22.084Z" fill="white" />
</svg>
    