<svg width="334" height="38" viewBox="0 0 334 38" fill="none" xmlns="http://www.w3.org/2000/svg">
    <path d="M19.6934 14.2C20.9627 14.2 21.9614 14.5033 22.6894 15.11C23.4174 15.7167 23.7814 16.552 23.7814 17.616C23.7814 18.68 23.4174 19.5153 22.6894 20.122C21.9614 20.7287 20.9627 21.032 19.6934 21.032H17.2714V24H15.8714V14.2H19.6934ZM19.6514 19.814C20.538 19.814 21.2147 19.6273 21.6814 19.254C22.148 18.8713 22.3814 18.3253 22.3814 17.616C22.3814 16.9067 22.148 16.3653 21.6814 15.992C21.2147 15.6093 20.538 15.418 19.6514 15.418H17.2714V19.814H19.6514ZM28.7928 24.084C28.0555 24.084 27.3928 23.9207 26.8048 23.594C26.2168 23.2673 25.7548 22.8193 25.4188 22.25C25.0922 21.6713 24.9288 21.018 24.9288 20.29C24.9288 19.562 25.0922 18.9133 25.4188 18.344C25.7548 17.7653 26.2168 17.3173 26.8048 17C27.3928 16.6733 28.0555 16.51 28.7928 16.51C29.5302 16.51 30.1882 16.6733 30.7668 17C31.3548 17.3173 31.8122 17.7653 32.1388 18.344C32.4748 18.9133 32.6428 19.562 32.6428 20.29C32.6428 21.018 32.4748 21.6713 32.1388 22.25C31.8122 22.8193 31.3548 23.2673 30.7668 23.594C30.1882 23.9207 29.5302 24.084 28.7928 24.084ZM28.7928 22.908C29.2688 22.908 29.6935 22.8007 30.0668 22.586C30.4495 22.362 30.7482 22.054 30.9628 21.662C31.1775 21.2607 31.2848 20.8033 31.2848 20.29C31.2848 19.7767 31.1775 19.324 30.9628 18.932C30.7482 18.5307 30.4495 18.2227 30.0668 18.008C29.6935 17.7933 29.2688 17.686 28.7928 17.686C28.3168 17.686 27.8875 17.7933 27.5048 18.008C27.1315 18.2227 26.8328 18.5307 26.6088 18.932C26.3942 19.324 26.2868 19.7767 26.2868 20.29C26.2868 20.8033 26.3942 21.2607 26.6088 21.662C26.8328 22.054 27.1315 22.362 27.5048 22.586C27.8875 22.8007 28.3168 22.908 28.7928 22.908ZM41.5015 13.612V24H40.2135V22.824C39.9149 23.2347 39.5369 23.5473 39.0795 23.762C38.6222 23.9767 38.1182 24.084 37.5675 24.084C36.8489 24.084 36.2049 23.9253 35.6355 23.608C35.0662 23.2907 34.6182 22.8473 34.2915 22.278C33.9742 21.6993 33.8155 21.0367 33.8155 20.29C33.8155 19.5433 33.9742 18.8853 34.2915 18.316C34.6182 17.7467 35.0662 17.3033 35.6355 16.986C36.2049 16.6687 36.8489 16.51 37.5675 16.51C38.0995 16.51 38.5895 16.6127 39.0375 16.818C39.4855 17.014 39.8589 17.308 40.1575 17.7V13.612H41.5015ZM37.6795 22.908C38.1462 22.908 38.5709 22.8007 38.9535 22.586C39.3362 22.362 39.6349 22.054 39.8495 21.662C40.0642 21.2607 40.1715 20.8033 40.1715 20.29C40.1715 19.7767 40.0642 19.324 39.8495 18.932C39.6349 18.5307 39.3362 18.2227 38.9535 18.008C38.5709 17.7933 38.1462 17.686 37.6795 17.686C37.2035 17.686 36.7742 17.7933 36.3915 18.008C36.0182 18.2227 35.7195 18.5307 35.4955 18.932C35.2809 19.324 35.1735 19.7767 35.1735 20.29C35.1735 20.8033 35.2809 21.2607 35.4955 21.662C35.7195 22.054 36.0182 22.362 36.3915 22.586C36.7742 22.8007 37.2035 22.908 37.6795 22.908ZM51.0445 13.612V24H49.7565V22.824C49.4578 23.2347 49.0798 23.5473 48.6225 23.762C48.1652 23.9767 47.6612 24.084 47.1105 24.084C46.3918 24.084 45.7478 23.9253 45.1785 23.608C44.6092 23.2907 44.1612 22.8473 43.8345 22.278C43.5172 21.6993 43.3585 21.0367 43.3585 20.29C43.3585 19.5433 43.5172 18.8853 43.8345 18.316C44.1612 17.7467 44.6092 17.3033 45.1785 16.986C45.7478 16.6687 46.3918 16.51 47.1105 16.51C47.6425 16.51 48.1325 16.6127 48.5805 16.818C49.0285 17.014 49.4018 17.308 49.7005 17.7V13.612H51.0445ZM47.2225 22.908C47.6892 22.908 48.1138 22.8007 48.4965 22.586C48.8792 22.362 49.1778 22.054 49.3925 21.662C49.6072 21.2607 49.7145 20.8033 49.7145 20.29C49.7145 19.7767 49.6072 19.324 49.3925 18.932C49.1778 18.5307 48.8792 18.2227 48.4965 18.008C48.1138 17.7933 47.6892 17.686 47.2225 17.686C46.7465 17.686 46.3172 17.7933 45.9345 18.008C45.5612 18.2227 45.2625 18.5307 45.0385 18.932C44.8238 19.324 44.7165 19.7767 44.7165 20.29C44.7165 20.8033 44.8238 21.2607 45.0385 21.662C45.2625 22.054 45.5612 22.362 45.9345 22.586C46.3172 22.8007 46.7465 22.908 47.2225 22.908ZM60.5875 16.58V24H59.2995V22.824C59.0008 23.2347 58.6228 23.5473 58.1655 23.762C57.7081 23.9767 57.2041 24.084 56.6535 24.084C55.9348 24.084 55.2908 23.9253 54.7215 23.608C54.1521 23.2907 53.7041 22.8473 53.3775 22.278C53.0601 21.6993 52.9015 21.0367 52.9015 20.29C52.9015 19.5433 53.0601 18.8853 53.3775 18.316C53.7041 17.7467 54.1521 17.3033 54.7215 16.986C55.2908 16.6687 55.9348 16.51 56.6535 16.51C57.1855 16.51 57.6755 16.6127 58.1235 16.818C58.5715 17.014 58.9448 17.308 59.2435 17.7V16.58H60.5875ZM56.7655 22.908C57.2321 22.908 57.6568 22.8007 58.0395 22.586C58.4221 22.362 58.7208 22.054 58.9355 21.662C59.1501 21.2607 59.2575 20.8033 59.2575 20.29C59.2575 19.7767 59.1501 19.324 58.9355 18.932C58.7208 18.5307 58.4221 18.2227 58.0395 18.008C57.6568 17.7933 57.2321 17.686 56.7655 17.686C56.2895 17.686 55.8601 17.7933 55.4775 18.008C55.1041 18.2227 54.8055 18.5307 54.5815 18.932C54.3668 19.324 54.2595 19.7767 54.2595 20.29C54.2595 20.8033 54.3668 21.2607 54.5815 21.662C54.8055 22.054 55.1041 22.362 55.4775 22.586C55.8601 22.8007 56.2895 22.908 56.7655 22.908ZM64.4184 17.826C64.6518 17.3967 64.9971 17.07 65.4544 16.846C65.9118 16.622 66.4671 16.51 67.1204 16.51V17.812C67.0458 17.8027 66.9431 17.798 66.8124 17.798C66.0844 17.798 65.5104 18.0173 65.0904 18.456C64.6798 18.8853 64.4744 19.5013 64.4744 20.304V24H63.1304V16.58H64.4184V17.826Z" fill="white" />
    <path d="M19 3H63V1H19V3ZM63 35H19V37H63V35ZM19 35C10.1634 35 3 27.8366 3 19H1C1 28.9411 9.05888 37 19 37V35ZM79 19C79 27.8366 71.8366 35 63 35V37C72.9411 37 81 28.9411 81 19H79ZM63 3C71.8366 3 79 10.1634 79 19H81C81 9.05887 72.9411 1 63 1V3ZM19 1C9.05887 1 1 9.05887 1 19H3C3 10.1634 10.1634 3 19 3V1Z" fill="#79747E" />
    <path d="M107.583 14.088C108.89 14.088 109.921 14.4707 110.677 15.236C111.433 15.992 111.811 17.0793 111.811 18.498V24H110.411V21.298H104.755V24H103.383V18.498C103.383 17.0793 103.761 15.992 104.517 15.236C105.273 14.4707 106.295 14.088 107.583 14.088ZM110.411 20.08V18.372C110.411 17.3733 110.159 16.6173 109.655 16.104C109.16 15.5907 108.47 15.334 107.583 15.334C106.696 15.334 106.001 15.5907 105.497 16.104C105.002 16.6173 104.755 17.3733 104.755 18.372V20.08H110.411ZM120.952 16.58L117.704 24H116.332L113.084 16.58H114.484L117.032 22.53L119.636 16.58H120.952ZM124.239 24.084C123.632 24.084 123.049 24.0047 122.489 23.846C121.929 23.678 121.49 23.468 121.173 23.216L121.733 22.152C122.06 22.3853 122.456 22.572 122.923 22.712C123.39 22.852 123.861 22.922 124.337 22.922C125.513 22.922 126.101 22.586 126.101 21.914C126.101 21.69 126.022 21.5127 125.863 21.382C125.704 21.2513 125.504 21.158 125.261 21.102C125.028 21.0367 124.692 20.9667 124.253 20.892C123.656 20.7987 123.166 20.6913 122.783 20.57C122.41 20.4487 122.088 20.2433 121.817 19.954C121.546 19.6647 121.411 19.2587 121.411 18.736C121.411 18.064 121.691 17.5273 122.251 17.126C122.811 16.7153 123.562 16.51 124.505 16.51C125 16.51 125.494 16.5707 125.989 16.692C126.484 16.8133 126.89 16.9767 127.207 17.182L126.633 18.246C126.026 17.854 125.312 17.658 124.491 17.658C123.922 17.658 123.488 17.7513 123.189 17.938C122.89 18.1247 122.741 18.372 122.741 18.68C122.741 18.9227 122.825 19.114 122.993 19.254C123.161 19.394 123.366 19.4967 123.609 19.562C123.861 19.6273 124.211 19.702 124.659 19.786C125.256 19.8887 125.737 20.0007 126.101 20.122C126.474 20.234 126.792 20.43 127.053 20.71C127.314 20.99 127.445 21.382 127.445 21.886C127.445 22.558 127.156 23.0947 126.577 23.496C126.008 23.888 125.228 24.084 124.239 24.084ZM133.087 16.51C134.029 16.51 134.776 16.7853 135.327 17.336C135.887 17.8773 136.167 18.6753 136.167 19.73V24H134.823V19.884C134.823 19.1653 134.65 18.624 134.305 18.26C133.959 17.896 133.465 17.714 132.821 17.714C132.093 17.714 131.519 17.9287 131.099 18.358C130.679 18.778 130.469 19.3847 130.469 20.178V24H129.125V16.58H130.413V17.7C130.683 17.3173 131.047 17.0233 131.505 16.818C131.971 16.6127 132.499 16.51 133.087 16.51ZM138.654 16.58H139.998V24H138.654V16.58ZM139.326 15.152C139.065 15.152 138.845 15.068 138.668 14.9C138.5 14.732 138.416 14.5267 138.416 14.284C138.416 14.0413 138.5 13.836 138.668 13.668C138.845 13.4907 139.065 13.402 139.326 13.402C139.587 13.402 139.802 13.486 139.97 13.654C140.147 13.8127 140.236 14.0133 140.236 14.256C140.236 14.508 140.147 14.7227 139.97 14.9C139.802 15.068 139.587 15.152 139.326 15.152ZM146.47 23.566C146.274 23.734 146.031 23.8647 145.742 23.958C145.453 24.042 145.154 24.084 144.846 24.084C144.099 24.084 143.521 23.8833 143.11 23.482C142.699 23.0807 142.494 22.5067 142.494 21.76V14.956H143.838V16.58H145.966V17.686H143.838V21.704C143.838 22.1053 143.936 22.4133 144.132 22.628C144.337 22.8427 144.627 22.95 145 22.95C145.411 22.95 145.761 22.8333 146.05 22.6L146.47 23.566ZM151.993 23.566C151.797 23.734 151.555 23.8647 151.265 23.958C150.976 24.042 150.677 24.084 150.369 24.084C149.623 24.084 149.044 23.8833 148.633 23.482C148.223 23.0807 148.017 22.5067 148.017 21.76V14.956H149.361V16.58H151.489V17.686H149.361V21.704C149.361 22.1053 149.459 22.4133 149.655 22.628C149.861 22.8427 150.15 22.95 150.523 22.95C150.934 22.95 151.284 22.8333 151.573 22.6L151.993 23.566Z" fill="white" />
    <path d="M106.667 3H147.667V1H106.667V3ZM147.667 35H106.667V37H147.667V35ZM106.667 35C97.8304 35 90.667 27.8366 90.667 19H88.667C88.667 28.9411 96.7259 37 106.667 37V35ZM163.667 19C163.667 27.8366 156.504 35 147.667 35V37C157.608 37 165.667 28.9411 165.667 19H163.667ZM147.667 3C156.504 3 163.667 10.1634 163.667 19H165.667C165.667 9.05887 157.608 1 147.667 1V3ZM106.667 1C96.7259 1 88.667 9.05887 88.667 19H90.667C90.667 10.1634 97.8304 3 106.667 3V1Z" fill="#79747E" />
    <path d="M194.612 19.044H195.956V24H194.724V23.342C194.005 23.8553 193.095 24.112 191.994 24.112C191.107 24.112 190.281 23.916 189.516 23.524C188.76 23.132 188.153 22.5627 187.696 21.816C187.248 21.06 187.024 20.1687 187.024 19.142C187.024 18.1713 187.248 17.3033 187.696 16.538C188.153 15.7727 188.778 15.1753 189.572 14.746C190.374 14.3073 191.275 14.088 192.274 14.088C193.058 14.088 193.767 14.2187 194.402 14.48C195.046 14.732 195.592 15.1053 196.04 15.6L195.172 16.468C194.388 15.712 193.44 15.334 192.33 15.334C191.583 15.334 190.911 15.4973 190.314 15.824C189.726 16.1507 189.264 16.6033 188.928 17.182C188.592 17.7607 188.424 18.414 188.424 19.142C188.424 19.9167 188.592 20.5887 188.928 21.158C189.273 21.7273 189.726 22.1613 190.286 22.46C190.846 22.7493 191.452 22.894 192.106 22.894C192.563 22.894 193.006 22.8193 193.436 22.67C193.874 22.5113 194.266 22.2827 194.612 21.984V19.044ZM205.44 16.58V24H204.152V22.824C203.853 23.2347 203.475 23.5473 203.018 23.762C202.561 23.9767 202.057 24.084 201.506 24.084C200.787 24.084 200.143 23.9253 199.574 23.608C199.005 23.2907 198.557 22.8473 198.23 22.278C197.913 21.6993 197.754 21.0367 197.754 20.29C197.754 19.5433 197.913 18.8853 198.23 18.316C198.557 17.7467 199.005 17.3033 199.574 16.986C200.143 16.6687 200.787 16.51 201.506 16.51C202.038 16.51 202.528 16.6127 202.976 16.818C203.424 17.014 203.797 17.308 204.096 17.7V16.58H205.44ZM201.618 22.908C202.085 22.908 202.509 22.8007 202.892 22.586C203.275 22.362 203.573 22.054 203.788 21.662C204.003 21.2607 204.11 20.8033 204.11 20.29C204.11 19.7767 204.003 19.324 203.788 18.932C203.573 18.5307 203.275 18.2227 202.892 18.008C202.509 17.7933 202.085 17.686 201.618 17.686C201.142 17.686 200.713 17.7933 200.33 18.008C199.957 18.2227 199.658 18.5307 199.434 18.932C199.219 19.324 199.112 19.7767 199.112 20.29C199.112 20.8033 199.219 21.2607 199.434 21.662C199.658 22.054 199.957 22.362 200.33 22.586C200.713 22.8007 201.142 22.908 201.618 22.908ZM200.554 15.264C200.358 15.264 200.19 15.1987 200.05 15.068C199.91 14.928 199.84 14.7553 199.84 14.55C199.84 14.3447 199.91 14.172 200.05 14.032C200.19 13.892 200.358 13.822 200.554 13.822C200.75 13.822 200.918 13.892 201.058 14.032C201.198 14.172 201.268 14.3447 201.268 14.55C201.268 14.7553 201.198 14.928 201.058 15.068C200.918 15.1987 200.75 15.264 200.554 15.264ZM203.158 15.264C202.962 15.264 202.794 15.1987 202.654 15.068C202.514 14.928 202.444 14.7553 202.444 14.55C202.444 14.3447 202.514 14.172 202.654 14.032C202.794 13.892 202.962 13.822 203.158 13.822C203.354 13.822 203.522 13.892 203.662 14.032C203.802 14.172 203.872 14.3447 203.872 14.55C203.872 14.7553 203.802 14.928 203.662 15.068C203.522 15.1987 203.354 15.264 203.158 15.264ZM210.111 24.084C209.504 24.084 208.921 24.0047 208.361 23.846C207.801 23.678 207.362 23.468 207.045 23.216L207.605 22.152C207.932 22.3853 208.328 22.572 208.795 22.712C209.262 22.852 209.733 22.922 210.209 22.922C211.385 22.922 211.973 22.586 211.973 21.914C211.973 21.69 211.894 21.5127 211.735 21.382C211.576 21.2513 211.376 21.158 211.133 21.102C210.9 21.0367 210.564 20.9667 210.125 20.892C209.528 20.7987 209.038 20.6913 208.655 20.57C208.282 20.4487 207.96 20.2433 207.689 19.954C207.418 19.6647 207.283 19.2587 207.283 18.736C207.283 18.064 207.563 17.5273 208.123 17.126C208.683 16.7153 209.434 16.51 210.377 16.51C210.872 16.51 211.366 16.5707 211.861 16.692C212.356 16.8133 212.762 16.9767 213.079 17.182L212.505 18.246C211.898 17.854 211.184 17.658 210.363 17.658C209.794 17.658 209.36 17.7513 209.061 17.938C208.762 18.1247 208.613 18.372 208.613 18.68C208.613 18.9227 208.697 19.114 208.865 19.254C209.033 19.394 209.238 19.4967 209.481 19.562C209.733 19.6273 210.083 19.702 210.531 19.786C211.128 19.8887 211.609 20.0007 211.973 20.122C212.346 20.234 212.664 20.43 212.925 20.71C213.186 20.99 213.317 21.382 213.317 21.886C213.317 22.558 213.028 23.0947 212.449 23.496C211.88 23.888 211.1 24.084 210.111 24.084ZM218.903 23.566C218.707 23.734 218.464 23.8647 218.175 23.958C217.885 24.042 217.587 24.084 217.279 24.084C216.532 24.084 215.953 23.8833 215.543 23.482C215.132 23.0807 214.927 22.5067 214.927 21.76V14.956H216.271V16.58H218.399V17.686H216.271V21.704C216.271 22.1053 216.369 22.4133 216.565 22.628C216.77 22.8427 217.059 22.95 217.433 22.95C217.843 22.95 218.193 22.8333 218.483 22.6L218.903 23.566ZM223.62 22.908C224.507 22.908 225.221 22.6093 225.762 22.012L226.49 22.88C226.163 23.272 225.748 23.5707 225.244 23.776C224.749 23.9813 224.194 24.084 223.578 24.084C222.794 24.084 222.099 23.9253 221.492 23.608C220.885 23.2813 220.414 22.8287 220.078 22.25C219.751 21.6713 219.588 21.018 219.588 20.29C219.588 19.5713 219.747 18.9227 220.064 18.344C220.391 17.7653 220.834 17.3173 221.394 17C221.963 16.6733 222.603 16.51 223.312 16.51C223.984 16.51 224.595 16.664 225.146 16.972C225.697 17.2707 226.135 17.6953 226.462 18.246C226.789 18.7967 226.957 19.4313 226.966 20.15L221.072 21.298C221.259 21.8113 221.571 22.208 222.01 22.488C222.458 22.768 222.995 22.908 223.62 22.908ZM223.312 17.644C222.845 17.644 222.425 17.7513 222.052 17.966C221.688 18.1807 221.403 18.484 221.198 18.876C220.993 19.2587 220.89 19.7067 220.89 20.22V20.36L225.636 19.464C225.515 18.9227 225.244 18.484 224.824 18.148C224.404 17.812 223.9 17.644 223.312 17.644ZM230.134 17.826C230.368 17.3967 230.713 17.07 231.17 16.846C231.628 16.622 232.183 16.51 232.836 16.51V17.812C232.762 17.8027 232.659 17.798 232.528 17.798C231.8 17.798 231.226 18.0173 230.806 18.456C230.396 18.8853 230.19 19.5013 230.19 20.304V24H228.846V16.58H230.134V17.826Z" fill="white" />
    <path d="M191.333 3H228.333V1H191.333V3ZM228.333 35H191.333V37H228.333V35ZM191.333 35C182.496 35 175.333 27.8366 175.333 19H173.333C173.333 28.9411 181.392 37 191.333 37V35ZM244.333 19C244.333 27.8366 237.17 35 228.333 35V37C238.274 37 246.333 28.9411 246.333 19H244.333ZM228.333 3C237.17 3 244.333 10.1634 244.333 19H246.333C246.333 9.05887 238.274 1 228.333 1V3ZM191.333 1C181.392 1 173.333 9.05887 173.333 19H175.333C175.333 10.1634 182.496 3 191.333 3V1Z" fill="#79747E" />
    <path d="M272.412 14.2C273.681 14.2 274.68 14.5033 275.408 15.11C276.136 15.7167 276.5 16.552 276.5 17.616C276.5 18.68 276.136 19.5153 275.408 20.122C274.68 20.7287 273.681 21.032 272.412 21.032H269.99V24H268.59V14.2H272.412ZM272.37 19.814C273.257 19.814 273.933 19.6273 274.4 19.254C274.867 18.8713 275.1 18.3253 275.1 17.616C275.1 16.9067 274.867 16.3653 274.4 15.992C273.933 15.6093 273.257 15.418 272.37 15.418H269.99V19.814H272.37ZM279.526 17.826C279.759 17.3967 280.105 17.07 280.562 16.846C281.019 16.622 281.575 16.51 282.228 16.51V17.812C282.153 17.8027 282.051 17.798 281.92 17.798C281.192 17.798 280.618 18.0173 280.198 18.456C279.787 18.8853 279.582 19.5013 279.582 20.304V24H278.238V16.58H279.526V17.826ZM286.994 24.084C286.257 24.084 285.594 23.9207 285.006 23.594C284.418 23.2673 283.956 22.8193 283.62 22.25C283.293 21.6713 283.13 21.018 283.13 20.29C283.13 19.562 283.293 18.9133 283.62 18.344C283.956 17.7653 284.418 17.3173 285.006 17C285.594 16.6733 286.257 16.51 286.994 16.51C287.731 16.51 288.389 16.6733 288.968 17C289.556 17.3173 290.013 17.7653 290.34 18.344C290.676 18.9133 290.844 19.562 290.844 20.29C290.844 21.018 290.676 21.6713 290.34 22.25C290.013 22.8193 289.556 23.2673 288.968 23.594C288.389 23.9207 287.731 24.084 286.994 24.084ZM286.994 22.908C287.47 22.908 287.895 22.8007 288.268 22.586C288.651 22.362 288.949 22.054 289.164 21.662C289.379 21.2607 289.486 20.8033 289.486 20.29C289.486 19.7767 289.379 19.324 289.164 18.932C288.949 18.5307 288.651 18.2227 288.268 18.008C287.895 17.7933 287.47 17.686 286.994 17.686C286.518 17.686 286.089 17.7933 285.706 18.008C285.333 18.2227 285.034 18.5307 284.81 18.932C284.595 19.324 284.488 19.7767 284.488 20.29C284.488 20.8033 284.595 21.2607 284.81 21.662C285.034 22.054 285.333 22.362 285.706 22.586C286.089 22.8007 286.518 22.908 286.994 22.908ZM295.223 14.634C294.42 14.634 294.019 15.068 294.019 15.936V16.58H296.189V17.686H294.047V24H292.703V15.922C292.703 15.1847 292.917 14.6013 293.347 14.172C293.776 13.7427 294.378 13.528 295.153 13.528C295.451 13.528 295.731 13.5653 295.993 13.64C296.254 13.7147 296.478 13.822 296.665 13.962L296.259 14.984C295.951 14.7507 295.605 14.634 295.223 14.634ZM298.569 16.58H299.913V24H298.569V16.58ZM299.241 15.152C298.979 15.152 298.76 15.068 298.583 14.9C298.415 14.732 298.331 14.5267 298.331 14.284C298.331 14.0413 298.415 13.836 298.583 13.668C298.76 13.4907 298.979 13.402 299.241 13.402C299.502 13.402 299.717 13.486 299.885 13.654C300.062 13.8127 300.151 14.0133 300.151 14.256C300.151 14.508 300.062 14.7227 299.885 14.9C299.717 15.068 299.502 15.152 299.241 15.152ZM304.732 24.084C304.013 24.084 303.458 23.888 303.066 23.496C302.674 23.0947 302.478 22.5347 302.478 21.816V13.612H303.822V21.704C303.822 22.1053 303.915 22.4133 304.102 22.628C304.298 22.8427 304.587 22.95 304.97 22.95C305.203 22.95 305.423 22.9033 305.628 22.81L305.698 23.916C305.39 24.028 305.068 24.084 304.732 24.084ZM310.185 22.908C311.072 22.908 311.786 22.6093 312.327 22.012L313.055 22.88C312.729 23.272 312.313 23.5707 311.809 23.776C311.315 23.9813 310.759 24.084 310.143 24.084C309.359 24.084 308.664 23.9253 308.057 23.608C307.451 23.2813 306.979 22.8287 306.643 22.25C306.317 21.6713 306.153 21.018 306.153 20.29C306.153 19.5713 306.312 18.9227 306.629 18.344C306.956 17.7653 307.399 17.3173 307.959 17C308.529 16.6733 309.168 16.51 309.877 16.51C310.549 16.51 311.161 16.664 311.711 16.972C312.262 17.2707 312.701 17.6953 313.027 18.246C313.354 18.7967 313.522 19.4313 313.531 20.15L307.637 21.298C307.824 21.8113 308.137 22.208 308.575 22.488C309.023 22.768 309.56 22.908 310.185 22.908ZM309.877 17.644C309.411 17.644 308.991 17.7513 308.617 17.966C308.253 18.1807 307.969 18.484 307.763 18.876C307.558 19.2587 307.455 19.7067 307.455 20.22V20.36L312.201 19.464C312.08 18.9227 311.809 18.484 311.389 18.148C310.969 17.812 310.465 17.644 309.877 17.644ZM316.7 17.826C316.933 17.3967 317.278 17.07 317.736 16.846C318.193 16.622 318.748 16.51 319.402 16.51V17.812C319.327 17.8027 319.224 17.798 319.094 17.798C318.366 17.798 317.792 18.0173 317.372 18.456C316.961 18.8853 316.756 19.5013 316.756 20.304V24H315.412V16.58H316.7V17.826Z" fill="white" />
    <path d="M272 3H315V1H272V3ZM315 35H272V37H315V35ZM272 35C263.163 35 256 27.8366 256 19H254C254 28.9411 262.059 37 272 37V35ZM331 19C331 27.8366 323.837 35 315 35V37C324.941 37 333 28.9411 333 19H331ZM315 3C323.837 3 331 10.1634 331 19H333C333 9.05887 324.941 1 315 1V3ZM272 1C262.059 1 254 9.05887 254 19H256C256 10.1634 263.163 3 272 3V1Z" fill="#79747E" />
</svg>    