<svg width="223" height="233" viewBox="0 0 223 233" fill="none" xmlns="http://www.w3.org/2000/svg">
<path d="M0.172083 116.311C0.172082 131.329 3.0539 146.2 8.653 160.075C14.2521 173.949 22.4588 186.556 32.8046 197.176C43.1504 207.795 55.4327 216.219 68.9501 221.966C82.4675 227.713 96.9554 230.671 111.587 230.671C126.218 230.671 140.706 227.713 154.223 221.966C167.74 216.219 180.023 207.795 190.368 197.176C200.714 186.556 208.921 173.949 214.52 160.075C220.119 146.2 223.001 131.329 223.001 116.311L111.587 116.311L0.172083 116.311Z" fill="white"/>
<path d="M223.001 116.311C223.001 101.293 220.119 86.4223 214.52 72.5475C208.921 58.6727 200.714 46.0658 190.368 35.4465C180.022 24.8271 167.74 16.4034 154.223 10.6563C140.705 4.90918 126.218 1.95117 111.586 1.95117C96.9552 1.95117 82.4673 4.90918 68.9499 10.6563C55.4324 16.4034 43.1502 24.8271 32.8044 35.4465C22.4586 46.0658 14.2519 58.6727 8.65279 72.5475C3.05369 86.4223 0.171874 101.293 0.171875 116.311L111.586 116.311H223.001Z" fill="white"/>
<path d="M0.172083 115.501C0.172082 130.626 3.0539 145.602 8.653 159.575C14.2521 173.548 22.4588 186.244 32.8046 196.939C43.1504 207.633 55.4327 216.116 68.9501 221.904C82.4675 227.692 96.9554 230.671 111.587 230.671C126.218 230.671 140.706 227.692 154.223 221.904C167.74 216.116 180.023 207.633 190.368 196.939C200.714 186.244 208.921 173.548 214.52 159.575C220.119 145.602 223.001 130.626 223.001 115.501L218.544 115.501C218.544 130.021 215.778 144.398 210.403 157.812C205.028 171.226 197.149 183.414 187.217 193.681C177.285 203.948 165.494 212.092 152.518 217.648C139.541 223.204 125.632 226.064 111.587 226.064C97.5406 226.064 83.6323 223.204 70.6555 217.648C57.6788 212.092 45.8879 203.948 35.9559 193.681C26.0239 183.414 18.1455 171.226 12.7703 157.812C7.39521 144.398 4.62866 130.021 4.62866 115.501L0.172083 115.501Z" fill="#AB6EE9"/>
<path d="M223.001 117.121C223.001 101.996 220.119 87.0202 214.52 73.0472C208.921 59.0742 200.714 46.378 190.368 35.6835C180.022 24.9891 167.74 16.5057 154.223 10.7179C140.705 4.93012 126.218 1.95117 111.586 1.95117C96.9552 1.95117 82.4673 4.93012 68.9499 10.7179C55.4324 16.5057 43.1502 24.9891 32.8044 35.6835C22.4586 46.378 14.2519 59.0742 8.65279 73.0472C3.05369 87.0202 0.171874 101.996 0.171875 117.121L4.62846 117.121C4.62845 102.601 7.395 88.2243 12.7701 74.8102C18.1453 61.3961 26.0237 49.2077 35.9557 38.941C45.8877 28.6743 57.6786 20.5303 70.6553 14.974C83.6321 9.41774 97.5404 6.55795 111.586 6.55795C125.632 6.55795 139.541 9.41774 152.517 14.974C165.494 20.5303 177.285 28.6743 187.217 38.941C197.149 49.2077 205.027 61.3961 210.403 74.8102C215.778 88.2242 218.544 102.601 218.544 117.121H223.001Z" fill="#AB6EE9"/>
<rect x="56.61" y="156.83" width="4.49705" height="32.8735" fill="#AB6EE9"/>
<rect x="70.1011" y="173.109" width="4.49705" height="16.5941" fill="#AB6EE9"/>
<rect x="83.5921" y="173.109" width="4.49705" height="39.3942" fill="#AB6EE9"/>
<rect x="97.0835" y="122.248" width="4.49705" height="90.2559" fill="#AB6EE9"/>
<rect x="110.575" y="122.067" width="4.49705" height="42.2273" fill="#AB6EE9"/>
<rect x="97.0835" y="122.248" width="4.49705" height="42.0474" fill="#AB6EE9"/>
<rect x="124.066" y="89.104" width="4.49705" height="107.48" fill="#AB6EE9"/>
<rect x="124.066" y="164.295" width="4.49705" height="32.2888" fill="#AB6EE9"/>
<rect x="137.557" y="89.104" width="4.49705" height="75.1907" fill="#AB6EE9"/>
<rect x="137.557" y="164.295" width="4.49705" height="7.06037" fill="#AB6EE9"/>
<rect x="151.048" y="164.295" width="4.49705" height="7.06037" fill="#AB6EE9"/>
<rect x="151.048" y="60.188" width="4.49705" height="104.107" fill="#AB6EE9"/>
<rect x="164.539" y="60.188" width="4.49705" height="118.947" fill="#AB6EE9"/>
<rect x="178.03" y="114.872" width="4.49705" height="66.5114" fill="#AB6EE9"/>
<rect x="151.048" y="146.576" width="4.49705" height="17.7184" fill="#AB6EE9"/>
<rect x="56.61" y="156.83" width="4.49705" height="7.46511" fill="#AB6EE9"/>
<rect x="110.575" y="164.295" width="4.49705" height="32.2888" fill="#AB6EE9"/>
<rect x="36.3732" y="78.1309" width="44.9705" height="80.9469" rx="22.4853" stroke="#AB6EE9" stroke-width="4.49705"/>
<path d="M74.5983 189.703C74.5983 190.884 74.3656 192.054 73.9136 193.145C73.4616 194.236 72.7991 195.228 71.9639 196.063C71.1288 196.898 70.1373 197.561 69.046 198.013C67.9548 198.465 66.7853 198.697 65.6042 198.697C64.423 198.697 63.2535 198.465 62.1623 198.013C61.071 197.561 60.0795 196.898 59.2444 196.063C58.4092 195.228 57.7467 194.236 57.2947 193.145C56.8427 192.054 56.61 190.884 56.61 189.703L61.1071 189.703C61.1071 190.294 61.2234 190.878 61.4494 191.424C61.6754 191.97 62.0067 192.465 62.4243 192.883C62.8418 193.301 63.3376 193.632 63.8832 193.858C64.4288 194.084 65.0136 194.2 65.6042 194.2C66.1947 194.2 66.7795 194.084 67.3251 193.858C67.8707 193.632 68.3665 193.301 68.784 192.883C69.2016 192.465 69.5329 191.97 69.7589 191.424C69.9849 190.878 70.1012 190.294 70.1012 189.703H74.5983Z" fill="#AB6EE9"/>
<path d="M155.545 171.31C155.545 172.491 155.313 173.661 154.861 174.752C154.409 175.843 153.746 176.835 152.911 177.67C152.076 178.505 151.084 179.167 149.993 179.619C148.902 180.071 147.732 180.304 146.551 180.304C145.37 180.304 144.2 180.071 143.109 179.619C142.018 179.167 141.026 178.505 140.191 177.67C139.356 176.835 138.694 175.843 138.242 174.752C137.79 173.661 137.557 172.491 137.557 171.31L142.054 171.31C142.054 171.901 142.17 172.485 142.396 173.031C142.622 173.577 142.954 174.072 143.371 174.49C143.789 174.908 144.284 175.239 144.83 175.465C145.376 175.691 145.96 175.807 146.551 175.807C147.142 175.807 147.726 175.691 148.272 175.465C148.818 175.239 149.313 174.908 149.731 174.49C150.149 174.072 150.48 173.577 150.706 173.031C150.932 172.485 151.048 171.901 151.048 171.31H155.545Z" fill="#AB6EE9"/>
<path d="M101.58 212.503C101.58 213.685 101.348 214.854 100.896 215.945C100.444 217.036 99.7812 218.028 98.946 218.863C98.1108 219.698 97.1193 220.361 96.0281 220.813C94.9369 221.265 93.7673 221.497 92.5862 221.497C91.4051 221.497 90.2355 221.265 89.1443 220.813C88.0531 220.361 87.0616 219.698 86.2264 218.863C85.3912 218.028 84.7287 217.036 84.2767 215.945C83.8247 214.854 83.5921 213.685 83.5921 212.503L88.0892 212.503C88.0892 213.094 88.2055 213.679 88.4315 214.224C88.6575 214.77 88.9887 215.266 89.4063 215.683C89.8239 216.101 90.3197 216.432 90.8653 216.658C91.4109 216.884 91.9956 217 92.5862 217C93.1768 217 93.7615 216.884 94.3072 216.658C94.8528 216.432 95.3485 216.101 95.7661 215.683C96.1837 215.266 96.5149 214.77 96.7409 214.224C96.9669 213.679 97.0833 213.094 97.0833 212.503H101.58Z" fill="#AB6EE9"/>
<path d="M128.563 196.583C128.563 197.765 128.33 198.934 127.878 200.025C127.426 201.117 126.764 202.108 125.928 202.943C125.093 203.778 124.102 204.441 123.011 204.893C121.919 205.345 120.75 205.578 119.569 205.578C118.388 205.578 117.218 205.345 116.127 204.893C115.036 204.441 114.044 203.778 113.209 202.943C112.374 202.108 111.711 201.117 111.259 200.025C110.807 198.934 110.575 197.765 110.575 196.583L115.072 196.583C115.072 197.174 115.188 197.759 115.414 198.304C115.64 198.85 115.971 199.346 116.389 199.763C116.806 200.181 117.302 200.512 117.848 200.738C118.393 200.964 118.978 201.081 119.569 201.081C120.159 201.081 120.744 200.964 121.29 200.738C121.835 200.512 122.331 200.181 122.749 199.763C123.166 199.346 123.497 198.85 123.723 198.304C123.949 197.759 124.066 197.174 124.066 196.583H128.563Z" fill="#AB6EE9"/>
<path d="M97.0834 122.247C97.0834 121.066 97.316 119.896 97.768 118.805C98.22 117.714 98.8825 116.722 99.7177 115.887C100.553 115.052 101.544 114.39 102.636 113.938C103.727 113.486 104.896 113.253 106.077 113.253C107.259 113.253 108.428 113.486 109.519 113.938C110.611 114.39 111.602 115.052 112.437 115.887C113.272 116.722 113.935 117.714 114.387 118.805C114.839 119.896 115.072 121.066 115.072 122.247L110.575 122.247C110.575 121.657 110.458 121.072 110.232 120.526C110.006 119.981 109.675 119.485 109.257 119.067C108.84 118.65 108.344 118.318 107.798 118.092C107.253 117.866 106.668 117.75 106.077 117.75C105.487 117.75 104.902 117.866 104.357 118.092C103.811 118.318 103.315 118.65 102.898 119.067C102.48 119.485 102.149 119.981 101.923 120.526C101.697 121.072 101.58 121.657 101.58 122.247L97.0834 122.247Z" fill="#AB6EE9"/>
<path d="M124.066 89.3741C124.066 88.1929 124.298 87.0234 124.75 85.9322C125.202 84.8409 125.865 83.8494 126.7 83.0143C127.535 82.1791 128.527 81.5166 129.618 81.0646C130.709 80.6126 131.879 80.38 133.06 80.38C134.241 80.38 135.411 80.6126 136.502 81.0646C137.593 81.5166 138.585 82.1791 139.42 83.0143C140.255 83.8494 140.917 84.8409 141.369 85.9322C141.821 87.0234 142.054 88.1929 142.054 89.3741L137.557 89.3741C137.557 88.7835 137.441 88.1987 137.215 87.6531C136.989 87.1075 136.657 86.6118 136.24 86.1942C135.822 85.7766 135.326 85.4453 134.781 85.2193C134.235 84.9933 133.65 84.877 133.06 84.877C132.469 84.877 131.885 84.9933 131.339 85.2193C130.793 85.4453 130.298 85.7766 129.88 86.1942C129.462 86.6118 129.131 87.1075 128.905 87.6531C128.679 88.1987 128.563 88.7835 128.563 89.3741L124.066 89.3741Z" fill="#AB6EE9"/>
<path d="M151.048 60.9073C151.048 59.7261 151.281 58.5566 151.732 57.4654C152.184 56.3742 152.847 55.3826 153.682 54.5475C154.517 53.7123 155.509 53.0498 156.6 52.5978C157.691 52.1458 158.861 51.9132 160.042 51.9132C161.223 51.9132 162.393 52.1458 163.484 52.5978C164.575 53.0498 165.567 53.7123 166.402 54.5475C167.237 55.3826 167.899 56.3742 168.351 57.4654C168.803 58.5566 169.036 59.7261 169.036 60.9073L164.539 60.9073C164.539 60.3167 164.423 59.7319 164.197 59.1863C163.971 58.6407 163.639 58.145 163.222 57.7274C162.804 57.3098 162.309 56.9785 161.763 56.7525C161.217 56.5265 160.633 56.4102 160.042 56.4102C159.451 56.4102 158.867 56.5265 158.321 56.7525C157.775 56.9785 157.28 57.3098 156.862 57.7274C156.444 58.145 156.113 58.6407 155.887 59.1863C155.661 59.7319 155.545 60.3167 155.545 60.9073L151.048 60.9073Z" fill="#AB6EE9"/>
<path d="M178.03 115.502C178.03 114.321 178.263 113.151 178.715 112.06C179.167 110.969 179.829 109.977 180.665 109.142C181.5 108.307 182.491 107.645 183.582 107.193C184.674 106.741 185.843 106.508 187.024 106.508C188.206 106.508 189.375 106.741 190.466 107.193C191.558 107.645 192.549 108.307 193.384 109.142C194.219 109.977 194.882 110.969 195.334 112.06C195.786 113.151 196.018 114.321 196.018 115.502L191.521 115.502C191.521 114.911 191.405 114.327 191.179 113.781C190.953 113.235 190.622 112.74 190.204 112.322C189.787 111.905 189.291 111.573 188.745 111.347C188.2 111.121 187.615 111.005 187.024 111.005C186.434 111.005 185.849 111.121 185.303 111.347C184.758 111.573 184.262 111.905 183.844 112.322C183.427 112.74 183.096 113.235 182.87 113.781C182.644 114.327 182.527 114.911 182.527 115.502L178.03 115.502Z" fill="#AB6EE9"/>
<path d="M209.51 115.501C209.51 116.683 209.277 117.852 208.825 118.943C208.373 120.035 207.711 121.026 206.875 121.861C206.04 122.696 205.049 123.359 203.957 123.811C202.866 124.263 201.697 124.496 200.516 124.496C199.334 124.496 198.165 124.263 197.074 123.811C195.982 123.359 194.991 122.696 194.156 121.861C193.321 121.026 192.658 120.035 192.206 118.943C191.754 117.852 191.521 116.683 191.521 115.501L196.019 115.501C196.019 116.092 196.135 116.677 196.361 117.222C196.587 117.768 196.918 118.264 197.336 118.681C197.753 119.099 198.249 119.43 198.795 119.656C199.34 119.882 199.925 119.998 200.516 119.998C201.106 119.998 201.691 119.882 202.237 119.656C202.782 119.43 203.278 119.099 203.695 118.681C204.113 118.264 204.444 117.768 204.67 117.222C204.896 116.677 205.013 116.092 205.013 115.501H209.51Z" fill="#AB6EE9"/>
<path d="M205.013 115.502C205.013 114.321 205.245 113.151 205.697 112.06C206.149 110.969 206.812 109.977 207.647 109.142C208.482 108.307 209.474 107.645 210.565 107.193C211.656 106.741 212.826 106.508 214.007 106.508C215.188 106.508 216.358 106.741 217.449 107.193C218.54 107.645 219.532 108.307 220.367 109.142C221.202 109.977 221.864 110.969 222.316 112.06C222.768 113.151 223.001 114.321 223.001 115.502L218.504 115.502C218.504 114.911 218.388 114.327 218.162 113.781C217.936 113.235 217.604 112.74 217.187 112.322C216.769 111.905 216.273 111.573 215.728 111.347C215.182 111.121 214.597 111.005 214.007 111.005C213.416 111.005 212.832 111.121 212.286 111.347C211.74 111.573 211.245 111.905 210.827 112.322C210.409 112.74 210.078 113.235 209.852 113.781C209.626 114.327 209.51 114.911 209.51 115.502L205.013 115.502Z" fill="#AB6EE9"/>
<path d="M182.527 179.135C182.527 180.316 182.295 181.485 181.843 182.577C181.391 183.668 180.728 184.659 179.893 185.495C179.058 186.33 178.066 186.992 176.975 187.444C175.884 187.896 174.714 188.129 173.533 188.129C172.352 188.129 171.182 187.896 170.091 187.444C169 186.992 168.009 186.33 167.173 185.495C166.338 184.659 165.676 183.668 165.224 182.577C164.772 181.485 164.539 180.316 164.539 179.135L169.036 179.135C169.036 179.725 169.152 180.31 169.378 180.856C169.604 181.401 169.936 181.897 170.353 182.315C170.771 182.732 171.267 183.063 171.812 183.289C172.358 183.515 172.943 183.632 173.533 183.632C174.124 183.632 174.709 183.515 175.254 183.289C175.8 183.063 176.295 182.732 176.713 182.315C177.131 181.897 177.462 181.401 177.688 180.856C177.914 180.31 178.03 179.725 178.03 179.135H182.527Z" fill="#AB6EE9"/>
<path d="M70.1008 173.289C70.1008 172.107 70.3335 170.938 70.7855 169.847C71.2375 168.755 71.9 167.764 72.7352 166.929C73.5703 166.094 74.5618 165.431 75.6531 164.979C76.7443 164.527 77.9138 164.295 79.0949 164.295C80.2761 164.295 81.4456 164.527 82.5368 164.979C83.6281 165.431 84.6196 166.094 85.4547 166.929C86.2899 167.764 86.9524 168.755 87.4044 169.847C87.8564 170.938 88.0891 172.107 88.0891 173.289L83.592 173.289C83.592 172.698 83.4757 172.113 83.2497 171.568C83.0237 171.022 82.6924 170.526 82.2748 170.109C81.8573 169.691 81.3615 169.36 80.8159 169.134C80.2703 168.908 79.6855 168.792 79.0949 168.792C78.5044 168.792 77.9196 168.908 77.374 169.134C76.8284 169.36 76.3326 169.691 75.915 170.109C75.4975 170.526 75.1662 171.022 74.9402 171.568C74.7142 172.113 74.5979 172.698 74.5979 173.289L70.1008 173.289Z" fill="#AB6EE9"/>
<rect x="57.5542" y="102.011" width="4.49705" height="23.2947" rx="2.24853" transform="rotate(90 57.5542 102.011)" fill="#AB6EE9"/>
<rect x="57.5542" y="112.624" width="4.49705" height="23.2947" rx="2.24853" transform="rotate(90 57.5542 112.624)" fill="#AB6EE9"/>
<rect x="57.5542" y="123.237" width="4.49705" height="23.2947" rx="2.24853" transform="rotate(90 57.5542 123.237)" fill="#AB6EE9"/>
</svg>
