<svg width="175" height="183" viewBox="0 0 175 183" fill="none" xmlns="http://www.w3.org/2000/svg">
    <path d="M0.000145236 90.449C0.000144198 102.327 2.2634 114.089 6.66068 125.062C11.058 136.036 17.5032 146.007 25.6283 154.406C33.7534 162.805 43.3993 169.467 54.0153 174.013C64.6313 178.558 76.0094 180.898 87.5001 180.898C98.9907 180.898 110.369 178.558 120.985 174.013C131.601 169.467 141.247 162.805 149.372 154.406C157.497 146.007 163.942 136.036 168.339 125.062C172.737 114.089 175 102.327 175 90.449L171.5 90.449C171.5 101.852 169.327 113.143 165.106 123.678C160.885 134.213 154.697 143.785 146.897 151.848C139.097 159.911 129.837 166.307 119.645 170.67C109.454 175.034 98.5311 177.28 87.5001 177.28C76.469 177.28 65.546 175.034 55.3547 170.67C45.1633 166.307 35.9033 159.911 28.1032 151.848C20.303 143.785 14.1156 134.213 9.89426 123.678C5.67287 113.143 3.50014 101.852 3.50015 90.449L0.000145236 90.449Z" fill="#726F9F" />
    <path d="M175 91.7207C175 79.8428 172.737 68.0811 168.339 57.1074C163.942 46.1336 157.497 36.1626 149.372 27.7636C141.247 19.3647 131.601 12.7022 120.985 8.15674C110.369 3.61126 98.9906 1.27173 87.4999 1.27173C76.0093 1.27173 64.6311 3.61126 54.0152 8.15675C43.3992 12.7022 33.7533 19.3647 25.6281 27.7636C17.503 36.1626 11.0578 46.1336 6.66053 57.1074C2.26325 68.0811 -1.00454e-06 79.8428 0 91.7207L3.5 91.7207C3.5 80.3179 5.67272 69.0267 9.89411 58.4919C14.1155 47.9571 20.3029 38.3849 28.103 30.3219C35.9031 22.2589 45.1632 15.863 55.3545 11.4993C65.5459 7.13564 76.4689 4.88969 87.4999 4.88969C98.531 4.88969 109.454 7.13564 119.645 11.4993C129.837 15.863 139.097 22.2589 146.897 30.3219C154.697 38.3849 160.884 47.9571 165.106 58.4919C169.327 69.0267 171.5 80.3179 171.5 91.7207L175 91.7207Z" fill="#726F9F" />
    <rect x="44.3242" y="122.906" width="3.53178" height="25.8173" fill="#726F9F" />
    <rect x="54.9199" y="135.691" width="3.53178" height="13.0323" fill="#726F9F" />
    <rect x="65.5146" y="135.691" width="3.53178" height="30.9384" fill="#726F9F" />
    <rect x="76.1104" y="95.7467" width="3.53178" height="70.8829" fill="#726F9F" />
    <rect x="86.7051" y="95.6055" width="3.53178" height="33.1634" fill="#726F9F" />
    <rect x="76.1104" y="95.7467" width="3.53178" height="33.0222" fill="#726F9F" />
    <rect x="97.3008" y="109.062" width="3.53178" height="45.0655" fill="#726F9F" />
    <rect x="97.3008" y="128.769" width="3.53178" height="25.3582" fill="#726F9F" />
    <rect x="107.896" y="109.062" width="3.53178" height="25.2522" fill="#726F9F" />
    <rect x="107.896" y="128.769" width="3.53178" height="5.5449" fill="#726F9F" />
    <rect x="118.491" y="128.769" width="3.53178" height="5.5449" fill="#726F9F" />
    <rect x="118.491" y="47.0083" width="3.53178" height="81.7608" fill="#726F9F" />
    <rect x="129.087" y="47.0083" width="3.53178" height="93.4156" fill="#726F9F" />
    <rect x="139.682" y="89.9547" width="3.53178" height="52.2351" fill="#726F9F" />
    <rect x="118.491" y="114.854" width="3.53178" height="13.9152" fill="#726F9F" />
    <rect x="44.3242" y="122.906" width="3.53178" height="5.86276" fill="#726F9F" />
    <rect x="86.7051" y="128.769" width="3.53178" height="25.3582" fill="#726F9F" />
    <rect x="27.4577" y="60.1272" width="37.2633" height="65.5175" rx="18.6316" stroke="#726F9F" stroke-width="5.47724" />
    <path d="M58.4513 148.723C58.4513 149.651 58.2686 150.57 57.9137 151.427C57.5587 152.284 57.0384 153.062 56.3825 153.718C55.7266 154.374 54.9479 154.894 54.0909 155.249C53.2339 155.604 52.3154 155.787 51.3878 155.787C50.4602 155.787 49.5417 155.604 48.6847 155.249C47.8277 154.894 47.049 154.374 46.3931 153.718C45.7372 153.062 45.2169 152.284 44.8619 151.427C44.5069 150.57 44.3242 149.651 44.3242 148.723L47.856 148.723C47.856 149.187 47.9474 149.647 48.1248 150.075C48.3023 150.504 48.5625 150.893 48.8904 151.221C49.2184 151.549 49.6077 151.809 50.0362 151.986C50.4647 152.164 50.924 152.255 51.3878 152.255C51.8516 152.255 52.3108 152.164 52.7393 151.986C53.1678 151.809 53.5572 151.549 53.8851 151.221C54.2131 150.893 54.4732 150.504 54.6507 150.075C54.8282 149.647 54.9196 149.187 54.9196 148.723H58.4513Z" fill="#726F9F" />
    <path d="M122.023 134.278C122.023 135.206 121.84 136.125 121.485 136.982C121.13 137.839 120.61 138.617 119.954 139.273C119.298 139.929 118.519 140.449 117.662 140.804C116.805 141.159 115.887 141.342 114.959 141.342C114.031 141.342 113.113 141.159 112.256 140.804C111.399 140.449 110.62 139.929 109.964 139.273C109.308 138.617 108.788 137.839 108.433 136.982C108.078 136.125 107.896 135.206 107.896 134.278L111.427 134.278C111.427 134.742 111.519 135.201 111.696 135.63C111.874 136.058 112.134 136.448 112.462 136.776C112.79 137.104 113.179 137.364 113.608 137.541C114.036 137.719 114.495 137.81 114.959 137.81C115.423 137.81 115.882 137.719 116.311 137.541C116.739 137.364 117.128 137.104 117.456 136.776C117.784 136.448 118.045 136.058 118.222 135.63C118.4 135.201 118.491 134.742 118.491 134.278H122.023Z" fill="#726F9F" />
    <path d="M79.6418 166.63C79.6418 167.557 79.4591 168.476 79.1041 169.333C78.7491 170.19 78.2288 170.969 77.5729 171.624C76.917 172.28 76.1383 172.801 75.2813 173.156C74.4243 173.511 73.5058 173.693 72.5782 173.693C71.6506 173.693 70.7321 173.511 69.8751 173.156C69.0181 172.801 68.2394 172.28 67.5835 171.624C66.9276 170.969 66.4073 170.19 66.0523 169.333C65.6974 168.476 65.5146 167.557 65.5146 166.63L69.0464 166.63C69.0464 167.094 69.1378 167.553 69.3153 167.981C69.4928 168.41 69.7529 168.799 70.0809 169.127C70.4088 169.455 70.7982 169.715 71.2267 169.893C71.6552 170.07 72.1144 170.162 72.5782 170.162C73.042 170.162 73.5013 170.07 73.9298 169.893C74.3583 169.715 74.7476 169.455 75.0756 169.127C75.4035 168.799 75.6637 168.41 75.8412 167.981C76.0186 167.553 76.11 167.094 76.11 166.63H79.6418Z" fill="#726F9F" />
    <path d="M100.832 154.127C100.832 155.055 100.65 155.973 100.295 156.83C99.9395 157.687 99.4193 158.466 98.7633 159.122C98.1074 159.778 97.3287 160.298 96.4718 160.653C95.6148 161.008 94.6962 161.191 93.7686 161.191C92.841 161.191 91.9225 161.008 91.0655 160.653C90.2085 160.298 89.4299 159.778 88.7739 159.122C88.118 158.466 87.5977 157.687 87.2428 156.83C86.8878 155.973 86.7051 155.055 86.7051 154.127L90.2369 154.127C90.2369 154.591 90.3282 155.05 90.5057 155.479C90.6832 155.907 90.9433 156.296 91.2713 156.624C91.5993 156.952 91.9886 157.212 92.4171 157.39C92.8456 157.567 93.3048 157.659 93.7686 157.659C94.2324 157.659 94.6917 157.567 95.1202 157.39C95.5487 157.212 95.938 156.952 96.266 156.624C96.5939 156.296 96.8541 155.907 97.0316 155.479C97.2091 155.05 97.3004 154.591 97.3004 154.127H100.832Z" fill="#726F9F" />
    <path d="M76.1102 95.7467C76.1102 94.8191 76.2929 93.9006 76.6479 93.0436C77.0028 92.1866 77.5231 91.408 78.179 90.752C78.835 90.0961 79.6136 89.5758 80.4706 89.2209C81.3276 88.8659 82.2461 88.6832 83.1737 88.6832C84.1013 88.6832 85.0199 88.8659 85.8769 89.2209C86.7338 89.5758 87.5125 90.0961 88.1684 90.752C88.8243 91.408 89.3446 92.1866 89.6996 93.0436C90.0546 93.9006 90.2373 94.8191 90.2373 95.7467L86.7055 95.7467C86.7055 95.2829 86.6142 94.8237 86.4367 94.3952C86.2592 93.9667 85.999 93.5773 85.6711 93.2494C85.3431 92.9214 84.9538 92.6613 84.5253 92.4838C84.0968 92.3063 83.6375 92.215 83.1737 92.215C82.7099 92.215 82.2507 92.3063 81.8222 92.4838C81.3937 92.6613 81.0043 92.9214 80.6764 93.2494C80.3484 93.5773 80.0883 93.9667 79.9108 94.3952C79.7333 94.8237 79.642 95.2829 79.642 95.7467L76.1102 95.7467Z" fill="#726F9F" />
    <path d="M97.3006 109.061C97.3006 108.134 97.4833 107.215 97.8383 106.358C98.1933 105.501 98.7136 104.723 99.3695 104.067C100.025 103.411 100.804 102.891 101.661 102.536C102.518 102.181 103.437 101.998 104.364 101.998C105.292 101.998 106.21 102.181 107.067 102.536C107.924 102.891 108.703 103.411 109.359 104.067C110.015 104.723 110.535 105.501 110.89 106.358C111.245 107.215 111.428 108.134 111.428 109.061L107.896 109.061C107.896 108.598 107.805 108.138 107.627 107.71C107.45 107.281 107.189 106.892 106.862 106.564C106.534 106.236 106.144 105.976 105.716 105.798C105.287 105.621 104.828 105.53 104.364 105.53C103.9 105.53 103.441 105.621 103.013 105.798C102.584 105.976 102.195 106.236 101.867 106.564C101.539 106.892 101.279 107.281 101.101 107.71C100.924 108.138 100.832 108.598 100.832 109.061L97.3006 109.061Z" fill="#726F9F" />
    <path d="M118.491 47.5732C118.491 46.6456 118.674 45.727 119.029 44.87C119.384 44.0131 119.904 43.2344 120.56 42.5785C121.216 41.9225 121.994 41.4022 122.851 41.0473C123.708 40.6923 124.627 40.5096 125.555 40.5096C126.482 40.5096 127.401 40.6923 128.258 41.0473C129.115 41.4022 129.893 41.9225 130.549 42.5785C131.205 43.2344 131.726 44.0131 132.08 44.87C132.435 45.727 132.618 46.6456 132.618 47.5732L129.086 47.5732C129.086 47.1094 128.995 46.6501 128.818 46.2216C128.64 45.7931 128.38 45.4038 128.052 45.0758C127.724 44.7478 127.335 44.4877 126.906 44.3102C126.478 44.1327 126.018 44.0414 125.555 44.0414C125.091 44.0414 124.632 44.1327 124.203 44.3102C123.775 44.4877 123.385 44.7478 123.057 45.0758C122.729 45.4038 122.469 45.7931 122.292 46.2216C122.114 46.6501 122.023 47.1094 122.023 47.5732L118.491 47.5732Z" fill="#726F9F" />
    <path d="M139.682 90.4491C139.682 89.5215 139.865 88.603 140.22 87.746C140.575 86.889 141.095 86.1103 141.751 85.4544C142.407 84.7985 143.186 84.2782 144.043 83.9232C144.9 83.5683 145.818 83.3856 146.746 83.3856C147.674 83.3856 148.592 83.5683 149.449 83.9232C150.306 84.2782 151.085 84.7985 151.741 85.4544C152.397 86.1103 152.917 86.889 153.272 87.746C153.627 88.603 153.81 89.5215 153.81 90.4491L150.278 90.4491C150.278 89.9853 150.186 89.5261 150.009 89.0976C149.831 88.6691 149.571 88.2797 149.243 87.9518C148.915 87.6238 148.526 87.3637 148.098 87.1862C147.669 87.0087 147.21 86.9173 146.746 86.9173C146.282 86.9173 145.823 87.0087 145.394 87.1862C144.966 87.3637 144.577 87.6238 144.249 87.9518C143.921 88.2797 143.661 88.6691 143.483 89.0976C143.306 89.5261 143.214 89.9853 143.214 90.4491L139.682 90.4491Z" fill="#726F9F" />
    <path d="M164.404 90.4489C164.404 91.3765 164.222 92.2951 163.867 93.1521C163.512 94.009 162.992 94.7877 162.336 95.4436C161.68 96.0995 160.901 96.6198 160.044 96.9748C159.187 97.3298 158.269 97.5125 157.341 97.5125C156.413 97.5125 155.495 97.3298 154.638 96.9748C153.781 96.6198 153.002 96.0995 152.346 95.4436C151.69 94.7877 151.17 94.009 150.815 93.1521C150.46 92.2951 150.277 91.3765 150.277 90.4489L153.809 90.4489C153.809 90.9127 153.9 91.372 154.078 91.8005C154.255 92.229 154.516 92.6183 154.844 92.9463C155.172 93.2742 155.561 93.5344 155.989 93.7119C156.418 93.8894 156.877 93.9807 157.341 93.9807C157.805 93.9807 158.264 93.8894 158.692 93.7119C159.121 93.5344 159.51 93.2742 159.838 92.9463C160.166 92.6183 160.426 92.229 160.604 91.8005C160.781 91.372 160.873 90.9127 160.873 90.4489H164.404Z" fill="#726F9F" />
    <path d="M160.873 90.4491C160.873 89.5215 161.056 88.603 161.411 87.746C161.766 86.889 162.286 86.1103 162.942 85.4544C163.598 84.7985 164.376 84.2782 165.233 83.9232C166.09 83.5683 167.009 83.3856 167.936 83.3856C168.864 83.3856 169.783 83.5683 170.64 83.9232C171.497 84.2782 172.275 84.7985 172.931 85.4544C173.587 86.1103 174.107 86.889 174.462 87.746C174.817 88.603 175 89.5215 175 90.4491L171.468 90.4491C171.468 89.9853 171.377 89.5261 171.199 89.0976C171.022 88.6691 170.762 88.2797 170.434 87.9518C170.106 87.6238 169.716 87.3637 169.288 87.1862C168.859 87.0087 168.4 86.9173 167.936 86.9173C167.473 86.9173 167.013 87.0087 166.585 87.1862C166.156 87.3637 165.767 87.6238 165.439 87.9518C165.111 88.2797 164.851 88.6691 164.673 89.0976C164.496 89.5261 164.405 89.9853 164.405 90.4491L160.873 90.4491Z" fill="#726F9F" />
    <path d="M143.214 140.424C143.214 141.351 143.031 142.27 142.676 143.127C142.321 143.984 141.801 144.762 141.145 145.418C140.489 146.074 139.711 146.595 138.854 146.95C137.997 147.305 137.078 147.487 136.15 147.487C135.223 147.487 134.304 147.305 133.447 146.95C132.59 146.595 131.812 146.074 131.156 145.418C130.5 144.762 129.98 143.984 129.625 143.127C129.27 142.27 129.087 141.351 129.087 140.424L132.619 140.424C132.619 140.887 132.71 141.347 132.888 141.775C133.065 142.204 133.325 142.593 133.653 142.921C133.981 143.249 134.37 143.509 134.799 143.687C135.227 143.864 135.687 143.955 136.15 143.955C136.614 143.955 137.074 143.864 137.502 143.687C137.931 143.509 138.32 143.249 138.648 142.921C138.976 142.593 139.236 142.204 139.413 141.775C139.591 141.347 139.682 140.887 139.682 140.424H143.214Z" fill="#726F9F" />
    <path d="M54.9197 135.832C54.9197 134.905 55.1024 133.986 55.4574 133.129C55.8124 132.272 56.3327 131.494 56.9886 130.838C57.6445 130.182 58.4232 129.662 59.2802 129.307C60.1372 128.952 61.0557 128.769 61.9833 128.769C62.9109 128.769 63.8294 128.952 64.6864 129.307C65.5434 129.662 66.3221 130.182 66.978 130.838C67.6339 131.494 68.1542 132.272 68.5092 133.129C68.8642 133.986 69.0469 134.905 69.0469 135.832L65.5151 135.832C65.5151 135.369 65.4237 134.909 65.2463 134.481C65.0688 134.052 64.8086 133.663 64.4807 133.335C64.1527 133.007 63.7634 132.747 63.3349 132.569C62.9064 132.392 62.4471 132.301 61.9833 132.301C61.5195 132.301 61.0603 132.392 60.6318 132.569C60.2033 132.747 59.8139 133.007 59.486 133.335C59.158 133.663 58.8979 134.052 58.7204 134.481C58.5429 134.909 58.4515 135.369 58.4515 135.832L54.9197 135.832Z" fill="#726F9F" />
    <rect x="45.0654" y="79.8535" width="3.53178" height="18.2946" rx="1.76589" transform="rotate(90 45.0654 79.8535)" fill="#726F9F" />
    <rect x="45.0654" y="88.1888" width="3.53178" height="18.2946" rx="1.76589" transform="rotate(90 45.0654 88.1888)" fill="#726F9F" />
    <rect x="45.0654" y="96.5238" width="3.53178" height="18.2946" rx="1.76589" transform="rotate(90 45.0654 96.5238)" fill="#726F9F" />
</svg>