<svg width="390" height="113" viewBox="0 0 390 113" fill="none" xmlns="http://www.w3.org/2000/svg">
<path d="M45.44 38.3574C50.24 38.3574 54.592 39.4774 58.496 41.7174C62.464 43.8934 65.568 46.9974 67.808 51.0294C70.048 54.9974 71.168 59.6374 71.168 64.9494C71.168 70.2614 70.048 74.9334 67.808 78.9654C65.568 82.9334 62.464 86.0374 58.496 88.2774C54.592 90.4534 50.24 91.5414 45.44 91.5414C38.848 91.5414 33.664 89.4614 29.888 85.3014V109.397H14.912V39.1254H29.216V45.0774C32.928 40.5974 38.336 38.3574 45.44 38.3574ZM42.848 79.2534C46.688 79.2534 49.824 77.9734 52.256 75.4134C54.752 72.7894 56 69.3014 56 64.9494C56 60.5974 54.752 57.1414 52.256 54.5814C49.824 51.9574 46.688 50.6454 42.848 50.6454C39.008 50.6454 35.84 51.9574 33.344 54.5814C30.912 57.1414 29.696 60.5974 29.696 64.9494C29.696 69.3014 30.912 72.7894 33.344 75.4134C35.84 77.9734 39.008 79.2534 42.848 79.2534ZM101.929 91.5414C96.4893 91.5414 91.5933 90.4214 87.2413 88.1814C82.9533 85.8774 79.5933 82.7094 77.1612 78.6774C74.7292 74.6454 73.5132 70.0694 73.5132 64.9494C73.5132 59.8294 74.7292 55.2534 77.1612 51.2214C79.5933 47.1894 82.9533 44.0534 87.2413 41.8134C91.5933 39.5094 96.4893 38.3574 101.929 38.3574C107.369 38.3574 112.233 39.5094 116.521 41.8134C120.809 44.0534 124.169 47.1894 126.601 51.2214C129.033 55.2534 130.249 59.8294 130.249 64.9494C130.249 70.0694 129.033 74.6454 126.601 78.6774C124.169 82.7094 120.809 85.8774 116.521 88.1814C112.233 90.4214 107.369 91.5414 101.929 91.5414ZM101.929 79.2534C105.769 79.2534 108.905 77.9734 111.337 75.4134C113.833 72.7894 115.081 69.3014 115.081 64.9494C115.081 60.5974 113.833 57.1414 111.337 54.5814C108.905 51.9574 105.769 50.6454 101.929 50.6454C98.0893 50.6454 94.9213 51.9574 92.4253 54.5814C89.9293 57.1414 88.6813 60.5974 88.6813 64.9494C88.6813 69.3014 89.9293 72.7894 92.4253 75.4134C94.9213 77.9734 98.0893 79.2534 101.929 79.2534ZM189.028 19.5414V90.7734H174.724V84.8214C171.012 89.3014 165.636 91.5414 158.595 91.5414C153.732 91.5414 149.316 90.4534 145.348 88.2774C141.444 86.1014 138.372 82.9974 136.132 78.9654C133.891 74.9334 132.771 70.2614 132.771 64.9494C132.771 59.6374 133.891 54.9654 136.132 50.9334C138.372 46.9014 141.444 43.7974 145.348 41.6214C149.316 39.4454 153.732 38.3574 158.595 38.3574C165.188 38.3574 170.34 40.4374 174.052 44.5974V19.5414H189.028ZM161.188 79.2534C164.964 79.2534 168.1 77.9734 170.596 75.4134C173.092 72.7894 174.34 69.3014 174.34 64.9494C174.34 60.5974 173.092 57.1414 170.596 54.5814C168.1 51.9574 164.964 50.6454 161.188 50.6454C157.348 50.6454 154.18 51.9574 151.684 54.5814C149.188 57.1414 147.939 60.5974 147.939 64.9494C147.939 69.3014 149.188 72.7894 151.684 75.4134C154.18 77.9734 157.348 79.2534 161.188 79.2534ZM251.656 19.5414V90.7734H237.352V84.8214C233.64 89.3014 228.264 91.5414 221.224 91.5414C216.36 91.5414 211.944 90.4534 207.976 88.2774C204.072 86.1014 201 82.9974 198.76 78.9654C196.52 74.9334 195.4 70.2614 195.4 64.9494C195.4 59.6374 196.52 54.9654 198.76 50.9334C201 46.9014 204.072 43.7974 207.976 41.6214C211.944 39.4454 216.36 38.3574 221.224 38.3574C227.816 38.3574 232.968 40.4374 236.68 44.5974V19.5414H251.656ZM223.816 79.2534C227.592 79.2534 230.728 77.9734 233.224 75.4134C235.72 72.7894 236.968 69.3014 236.968 64.9494C236.968 60.5974 235.72 57.1414 233.224 54.5814C230.728 51.9574 227.592 50.6454 223.816 50.6454C219.976 50.6454 216.808 51.9574 214.312 54.5814C211.816 57.1414 210.568 60.5974 210.568 64.9494C210.568 69.3014 211.816 72.7894 214.312 75.4134C216.808 77.9734 219.976 79.2534 223.816 79.2534ZM280.205 91.5414C274.381 91.5414 269.837 90.0054 266.573 86.9334C263.309 83.7974 261.677 79.3814 261.677 73.6854V19.5414H276.653V72.8214C276.653 74.9974 277.197 76.6934 278.285 77.9094C279.437 79.0614 281.037 79.6374 283.085 79.6374C283.853 79.6374 284.621 79.5414 285.389 79.3494C286.221 79.1574 286.861 78.9334 287.309 78.6774L287.981 90.2934C285.485 91.1254 282.893 91.5414 280.205 91.5414ZM316.572 79.5414C319.26 79.5414 321.628 79.1574 323.676 78.3894C325.788 77.5574 327.74 76.2774 329.532 74.5494L337.5 83.1894C332.636 88.7574 325.532 91.5414 316.188 91.5414C310.364 91.5414 305.212 90.4214 300.732 88.1814C296.252 85.8774 292.796 82.7094 290.364 78.6774C287.932 74.6454 286.716 70.0694 286.716 64.9494C286.716 59.8934 287.9 55.3494 290.268 51.3174C292.7 47.2214 295.996 44.0534 300.156 41.8134C304.38 39.5094 309.116 38.3574 314.364 38.3574C319.292 38.3574 323.772 39.4134 327.804 41.5254C331.836 43.5734 335.036 46.5814 337.404 50.5494C339.836 54.4534 341.052 59.0934 341.052 64.4694L302.844 71.8614C303.932 74.4214 305.628 76.3414 307.932 77.6214C310.3 78.9014 313.18 79.5414 316.572 79.5414ZM314.364 49.6854C310.588 49.6854 307.516 50.9014 305.148 53.3334C302.78 55.7654 301.532 59.1254 301.404 63.4134L326.556 58.5174C325.852 55.8294 324.412 53.6854 322.236 52.0854C320.06 50.4854 317.436 49.6854 314.364 49.6854ZM361.582 45.9414C363.374 43.4454 365.774 41.5574 368.782 40.2774C371.854 38.9974 375.374 38.3574 379.342 38.3574V52.1814C377.678 52.0534 376.558 51.9894 375.982 51.9894C371.694 51.9894 368.334 53.2054 365.902 55.6374C363.47 58.0054 362.254 61.5894 362.254 66.3894V90.7734H347.278V39.1254H361.582V45.9414Z" fill="black"/>
</svg>
