<svg width="180" height="180" viewBox="0 0 180 180" fill="none" xmlns="http://www.w3.org/2000/svg">
<g clip-path="url(#clip0_326_19690)">
<rect width="180" height="180" rx="90" transform="matrix(-1 0 0 1 180 0)" fill="#726F9F"/>
<path d="M102.34 137.176C97.8649 129.735 87.5898 115.471 63.1241 95.428C26.2059 65.184 61.0493 37.5208 98.4812 52.2541C102.485 53.8304 113.582 47.5202 123.86 54.168C130.491 58.4564 127.91 61.8172 130.492 65.178C133.074 68.5388 143.027 68.341 145.208 77.0678C146.499 82.2379 142.926 87.6535 143.404 91.545C143.882 95.4364 147.654 98.9442 147.834 104.081C147.912 106.251 147.562 108.415 146.803 110.449C146.045 112.484 144.893 114.349 143.414 115.938C141.934 117.527 140.156 118.809 138.181 119.711C136.206 120.613 134.073 121.117 131.903 121.194C131.885 125.484 130.211 129.601 127.228 132.684C124.246 135.768 120.188 137.579 115.902 137.74C113.153 137.841 110.423 137.25 107.962 136.021C105.521 138.271 103.425 138.979 102.34 137.176Z" fill="url(#paint0_linear_326_19690)"/>
<path d="M93.1889 50.4234C99.5534 54.5059 107.427 67.8955 103.971 85.8693C103.217 89.7911 105.573 90.9652 107.589 86.1277C113.67 71.5336 114.374 58.3719 103.971 52.0761C102.163 50.9872 101.129 51.8694 99.8371 51.7624C97.3799 51.5588 94.0715 49.8178 93.1889 50.4234Z" fill="url(#paint1_linear_326_19690)"/>
<path d="M101.457 129.489C101.457 124.839 101.616 101.898 101.608 101.51C114.377 103.393 114.118 79.1042 101.199 85.0471C98.3568 86.8558 90.3468 85.0471 91.122 70.0607C77.1691 85.0471 60.9699 67.5678 59.5808 81.8111C57.6837 101.26 59.5922 121.613 71.6789 121.615C73.0012 121.599 74.3195 121.467 75.6188 121.221V129.489C75.6188 134.657 66.3169 137.241 66.3169 137.241C66.3169 137.241 82.3844 152.382 89.0549 152.299C95.7254 152.215 110.759 137.241 110.759 137.241C110.759 137.241 101.457 134.657 101.457 129.489Z" fill="url(#paint2_linear_326_19690)"/>
<g style="mix-blend-mode:multiply">
<path d="M75.6192 121.219C82.0303 119.797 88.1054 117.147 93.5093 113.416C93.5093 113.416 89.0505 124.316 75.6358 126.384L75.6192 121.219Z" fill="#FFDBC9"/>
</g>
<path d="M40.9966 152.744C37.2474 161.076 35.3121 186.334 35.3121 186.334H141.767C141.767 186.334 139.832 161.076 136.083 152.744C132.798 145.446 111.154 137.066 104.811 134.657C101.149 138.754 95.9005 141.375 88.5396 141.375C81.1787 141.375 75.9304 138.754 72.268 134.657C65.9251 137.066 44.2812 145.446 40.9966 152.744Z" fill="url(#paint3_linear_326_19690)"/>
</g>
<defs>
<linearGradient id="paint0_linear_326_19690" x1="99.4136" y1="138.36" x2="96.2303" y2="47.4991" gradientUnits="userSpaceOnUse">
<stop stop-color="#E6864E"/>
<stop offset="1" stop-color="#E67240"/>
</linearGradient>
<linearGradient id="paint1_linear_326_19690" x1="102.6" y1="50.2961" x2="102.6" y2="89.305" gradientUnits="userSpaceOnUse">
<stop stop-color="#1D0024"/>
<stop offset="1" stop-color="#100014"/>
</linearGradient>
<linearGradient id="paint2_linear_326_19690" x1="84.9931" y1="70.0607" x2="84.9931" y2="152.299" gradientUnits="userSpaceOnUse">
<stop stop-color="#FFE0CC"/>
<stop offset="1" stop-color="#FFEADB"/>
</linearGradient>
<linearGradient id="paint3_linear_326_19690" x1="88.5396" y1="134.657" x2="88.5396" y2="186.334" gradientUnits="userSpaceOnUse">
<stop stop-color="#130027"/>
<stop offset="1" stop-color="#130017"/>
</linearGradient>
<clipPath id="clip0_326_19690">
<rect width="180" height="180" rx="90" transform="matrix(-1 0 0 1 180 0)" fill="white"/>
</clipPath>
</defs>
</svg>
