<svg width="114" height="135" viewBox="0 0 114 135" fill="none" xmlns="http://www.w3.org/2000/svg">
<path d="M67.3403 92.176C62.8649 84.7346 52.5898 70.4707 28.1241 50.428C-8.79411 20.184 26.0493 -7.47921 63.4812 7.25411C67.4855 8.8304 78.5817 2.52017 88.8603 9.16804C95.4908 13.4564 92.9104 16.8172 95.4921 20.178C98.0739 23.5388 108.027 23.341 110.208 32.0678C111.499 37.2379 107.926 42.6535 108.404 46.545C108.882 50.4364 112.654 53.9442 112.834 59.0814C112.912 61.2512 112.562 63.4151 111.803 65.4495C111.045 67.4838 109.893 69.3489 108.414 70.938C106.934 72.5272 105.156 73.8093 103.181 74.7112C101.206 75.6132 99.0729 76.1172 96.9031 76.1945C96.8854 80.484 95.2105 84.6007 92.2285 87.6841C89.2465 90.7676 85.1881 92.5792 80.9016 92.7404C78.1529 92.8409 75.4231 92.2496 72.9624 91.0208C70.5209 93.271 68.4249 93.9787 67.3403 92.176Z" fill="url(#paint0_linear_326_19691)"/>
<path d="M58.1889 5.42345C64.5534 9.50595 72.4275 22.8955 68.9713 40.8693C68.2173 44.7911 70.5733 45.9652 72.5887 41.1277C78.6696 26.5336 79.3744 13.3719 68.9713 7.07608C67.1626 5.98725 66.1291 6.86938 64.8371 6.7624C62.3799 6.5588 59.0715 4.81779 58.1889 5.42345Z" fill="url(#paint1_linear_326_19691)"/>
<path d="M66.4574 84.4895C66.4574 79.8385 66.6155 56.898 66.6078 56.5104C79.3767 58.3925 79.1183 34.1042 66.199 40.0471C63.3568 41.8558 55.3468 40.0471 56.122 25.0607C42.1691 40.0471 25.9699 22.5678 24.5808 36.8111C22.6837 56.2598 24.5922 76.6134 36.6789 76.6149C38.0012 76.5989 39.3195 76.4672 40.6188 76.2211V84.4895C40.6188 89.6572 31.3169 92.2411 31.3169 92.2411C31.3169 92.2411 47.3844 107.382 54.0549 107.299C60.7254 107.215 75.7593 92.2411 75.7593 92.2411C75.7593 92.2411 66.4574 89.6572 66.4574 84.4895Z" fill="url(#paint2_linear_326_19691)"/>
<g style="mix-blend-mode:multiply">
<path d="M40.6192 76.2185C47.0303 74.7967 53.1054 72.147 58.5093 68.4158C58.5093 68.4158 54.0505 79.316 40.6358 81.3842L40.6192 76.2185Z" fill="#FFDBC9"/>
</g>
<path d="M5.99658 107.744C2.2474 116.076 0.312088 141.334 0.312088 141.334H106.767C106.767 141.334 104.832 116.076 101.083 107.744C97.798 100.446 76.154 92.0659 69.8112 89.6572C66.1488 93.7542 60.9005 96.3753 53.5396 96.3753C46.1787 96.3753 40.9304 93.7542 37.268 89.6572C30.9251 92.0659 9.28118 100.446 5.99658 107.744Z" fill="url(#paint3_linear_326_19691)"/>
<defs>
<linearGradient id="paint0_linear_326_19691" x1="64.4136" y1="93.3599" x2="61.2303" y2="2.49906" gradientUnits="userSpaceOnUse">
<stop stop-color="#E6864E"/>
<stop offset="1" stop-color="#E67240"/>
</linearGradient>
<linearGradient id="paint1_linear_326_19691" x1="67.5996" y1="5.29614" x2="67.5996" y2="44.305" gradientUnits="userSpaceOnUse">
<stop stop-color="#1D0024"/>
<stop offset="1" stop-color="#100014"/>
</linearGradient>
<linearGradient id="paint2_linear_326_19691" x1="49.9931" y1="25.0607" x2="49.9931" y2="107.299" gradientUnits="userSpaceOnUse">
<stop stop-color="#FFE0CC"/>
<stop offset="1" stop-color="#FFEADB"/>
</linearGradient>
<linearGradient id="paint3_linear_326_19691" x1="53.5396" y1="89.6572" x2="53.5396" y2="141.334" gradientUnits="userSpaceOnUse">
<stop stop-color="#130027"/>
<stop offset="1" stop-color="#130017"/>
</linearGradient>
</defs>
</svg>
